<?xml version="1.0" encoding="UTF-8" standalone="no"?>
<!DOCTYPE svg PUBLIC "-//W3C//DTD SVG 1.1//EN"
 "http://www.w3.org/Graphics/SVG/1.1/DTD/svg11.dtd">
<!-- Generated by graphviz version 2.47.2 (20210527.0053)
 -->
<!-- Pages: 1 -->
<svg width="462pt" height="516pt"
 viewBox="0.00 0.00 462.09 516.36" xmlns="http://www.w3.org/2000/svg" xmlns:xlink="http://www.w3.org/1999/xlink">
<g id="graph0" class="graph" transform="scale(1 1) rotate(0) translate(4 512.36)">
<polygon fill="white" stroke="transparent" points="-4,4 -4,-512.36 458.09,-512.36 458.09,4 -4,4"/>
<!-- 128529091374 -->
<g id="node1" class="node">
<title>128529091374</title>
<ellipse fill="none" stroke="black" cx="227.05" cy="-458.32" rx="50.09" ry="50.09"/>
<text text-anchor="middle" x="227.05" y="-454.62" font-family="Times New Roman,serif" font-size="14.00">201533907</text>
</g>
<!-- 128529091494 -->
<g id="node2" class="node">
<title>128529091494</title>
<ellipse fill="none" stroke="black" cx="168.05" cy="-322.23" rx="50.09" ry="50.09"/>
<text text-anchor="middle" x="168.05" y="-318.53" font-family="Times New Roman,serif" font-size="14.00">201296311</text>
</g>
<!-- 128529091374&#45;&gt;128529091494 -->
<g id="edge1" class="edge">
<title>128529091374&#45;&gt;128529091494</title>
<path fill="none" stroke="black" d="M207.24,-412.3C202.37,-401.24 197.11,-389.28 192.07,-377.83"/>
<polygon fill="black" stroke="black" points="195.14,-376.1 187.9,-368.36 188.73,-378.92 195.14,-376.1"/>
</g>
<!-- 128529089244 -->
<g id="node3" class="node">
<title>128529089244</title>
<ellipse fill="none" stroke="black" cx="286.05" cy="-322.23" rx="50.09" ry="50.09"/>
<text text-anchor="middle" x="286.05" y="-318.53" font-family="Times New Roman,serif" font-size="14.00">201800525</text>
</g>
<!-- 128529091374&#45;&gt;128529089244 -->
<g id="edge2" class="edge">
<title>128529091374&#45;&gt;128529089244</title>
<path fill="none" stroke="black" d="M246.86,-412.3C251.72,-401.24 256.98,-389.28 262.02,-377.83"/>
<polygon fill="black" stroke="black" points="265.36,-378.92 266.19,-368.36 258.96,-376.1 265.36,-378.92"/>
</g>
<!-- 128529091434 -->
<g id="node4" class="node">
<title>128529091434</title>
<ellipse fill="none" stroke="black" cx="50.05" cy="-186.14" rx="50.09" ry="50.09"/>
<text text-anchor="middle" x="50.05" y="-182.44" font-family="Times New Roman,serif" font-size="14.00">201027375</text>
</g>
<!-- 128529091494&#45;&gt;128529091434 -->
<g id="edge3" class="edge">
<title>128529091494&#45;&gt;128529091434</title>
<path fill="none" stroke="black" d="M135.18,-283.88C120.98,-267.75 104.26,-248.75 89.41,-231.87"/>
<polygon fill="black" stroke="black" points="91.97,-229.48 82.74,-224.29 86.72,-234.11 91.97,-229.48"/>
</g>
<!-- 128529091467 -->
<g id="node5" class="node">
<title>128529091467</title>
<ellipse fill="none" stroke="black" cx="168.05" cy="-186.14" rx="50.09" ry="50.09"/>
<text text-anchor="middle" x="168.05" y="-182.44" font-family="Times New Roman,serif" font-size="14.00">201340841</text>
</g>
<!-- 128529091494&#45;&gt;128529091467 -->
<g id="edge4" class="edge">
<title>128529091494&#45;&gt;128529091467</title>
<path fill="none" stroke="black" d="M168.05,-272.06C168.05,-263.77 168.05,-255.09 168.05,-246.57"/>
<polygon fill="black" stroke="black" points="171.55,-246.3 168.05,-236.3 164.55,-246.3 171.55,-246.3"/>
</g>
<!-- 128529091464 -->
<g id="node8" class="node">
<title>128529091464</title>
<ellipse fill="none" stroke="black" cx="286.05" cy="-186.14" rx="50.09" ry="50.09"/>
<text text-anchor="middle" x="286.05" y="-182.44" font-family="Times New Roman,serif" font-size="14.00">201639410</text>
</g>
<!-- 128529089244&#45;&gt;128529091464 -->
<g id="edge7" class="edge">
<title>128529089244&#45;&gt;128529091464</title>
<path fill="none" stroke="black" d="M286.05,-272.06C286.05,-263.77 286.05,-255.09 286.05,-246.57"/>
<polygon fill="black" stroke="black" points="289.55,-246.3 286.05,-236.3 282.55,-246.3 289.55,-246.3"/>
</g>
<!-- 128529091422 -->
<g id="node9" class="node">
<title>128529091422</title>
<ellipse fill="none" stroke="black" cx="404.05" cy="-186.14" rx="50.09" ry="50.09"/>
<text text-anchor="middle" x="404.05" y="-182.44" font-family="Times New Roman,serif" font-size="14.00">201800526</text>
</g>
<!-- 128529089244&#45;&gt;128529091422 -->
<g id="edge8" class="edge">
<title>128529089244&#45;&gt;128529091422</title>
<path fill="none" stroke="black" d="M318.92,-283.88C333.11,-267.75 349.83,-248.75 364.68,-231.87"/>
<polygon fill="black" stroke="black" points="367.37,-234.11 371.35,-224.29 362.12,-229.48 367.37,-234.11"/>
</g>
<!-- 128529091353 -->
<g id="node6" class="node">
<title>128529091353</title>
<ellipse fill="none" stroke="black" cx="50.05" cy="-50.05" rx="50.09" ry="50.09"/>
<text text-anchor="middle" x="50.05" y="-46.35" font-family="Times New Roman,serif" font-size="14.00">201045090</text>
</g>
<!-- 128529091434&#45;&gt;128529091353 -->
<g id="edge5" class="edge">
<title>128529091434&#45;&gt;128529091353</title>
<path fill="none" stroke="black" d="M50.05,-135.97C50.05,-127.68 50.05,-118.99 50.05,-110.48"/>
<polygon fill="black" stroke="black" points="53.55,-110.21 50.05,-100.21 46.55,-110.21 53.55,-110.21"/>
</g>
<!-- 128529091338 -->
<g id="node7" class="node">
<title>128529091338</title>
<ellipse fill="none" stroke="black" cx="168.05" cy="-50.05" rx="50.09" ry="50.09"/>
<text text-anchor="middle" x="168.05" y="-46.35" font-family="Times New Roman,serif" font-size="14.00">201491494</text>
</g>
<!-- 128529091467&#45;&gt;128529091338 -->
<g id="edge6" class="edge">
<title>128529091467&#45;&gt;128529091338</title>
<path fill="none" stroke="black" d="M168.05,-135.97C168.05,-127.68 168.05,-118.99 168.05,-110.48"/>
<polygon fill="black" stroke="black" points="171.55,-110.21 168.05,-100.21 164.55,-110.21 171.55,-110.21"/>
</g>
<!-- 128519803359 -->
<g id="node10" class="node">
<title>128519803359</title>
<ellipse fill="none" stroke="black" cx="286.05" cy="-50.05" rx="50.09" ry="50.09"/>
<text text-anchor="middle" x="286.05" y="-46.35" font-family="Times New Roman,serif" font-size="14.00">201800524</text>
</g>
<!-- 128529091464&#45;&gt;128519803359 -->
<g id="edge9" class="edge">
<title>128529091464&#45;&gt;128519803359</title>
<path fill="none" stroke="black" d="M286.05,-135.97C286.05,-127.68 286.05,-118.99 286.05,-110.48"/>
<polygon fill="black" stroke="black" points="289.55,-110.21 286.05,-100.21 282.55,-110.21 289.55,-110.21"/>
</g>
<!-- 128529091485 -->
<g id="node11" class="node">
<title>128529091485</title>
<ellipse fill="none" stroke="black" cx="404.05" cy="-50.05" rx="50.09" ry="50.09"/>
<text text-anchor="middle" x="404.05" y="-46.35" font-family="Times New Roman,serif" font-size="14.00">201835603</text>
</g>
<!-- 128529091422&#45;&gt;128529091485 -->
<g id="edge10" class="edge">
<title>128529091422&#45;&gt;128529091485</title>
<path fill="none" stroke="black" d="M404.05,-135.97C404.05,-127.68 404.05,-118.99 404.05,-110.48"/>
<polygon fill="black" stroke="black" points="407.55,-110.21 404.05,-100.21 400.55,-110.21 407.55,-110.21"/>
</g>
</g>
</svg>
