<?xml version="1.0" encoding="UTF-8" standalone="no"?>
<!DOCTYPE svg PUBLIC "-//W3C//DTD SVG 1.1//EN"
 "http://www.w3.org/Graphics/SVG/1.1/DTD/svg11.dtd">
<!-- Generated by graphviz version 2.47.2 (20210527.0053)
 -->
<!-- Pages: 1 -->
<svg width="560pt" height="358pt"
 viewBox="0.00 0.00 560.00 358.00" xmlns="http://www.w3.org/2000/svg" xmlns:xlink="http://www.w3.org/1999/xlink">
<g id="graph0" class="graph" transform="scale(1 1) rotate(0) translate(4 354)">
<polygon fill="white" stroke="transparent" points="-4,4 -4,-354 556,-354 556,4 -4,4"/>
<!-- 137583163784 -->
<g id="node1" class="node">
<title>137583163784</title>
<polygon fill="none" stroke="black" points="330.5,-350 205.5,-350 205.5,-297 330.5,-297 330.5,-350"/>
<text text-anchor="middle" x="268" y="-334.8" font-family="Times New Roman,serif" font-size="14.00">201340841</text>
<text text-anchor="middle" x="268" y="-319.8" font-family="Times New Roman,serif" font-size="14.00">lionel messi</text>
<text text-anchor="middle" x="268" y="-304.8" font-family="Times New Roman,serif" font-size="14.00">ingenieria Mecanica</text>
</g>
<!-- 137583163709 -->
<g id="node2" class="node">
<title>137583163709</title>
<polygon fill="none" stroke="black" points="260.5,-261 135.5,-261 135.5,-208 260.5,-208 260.5,-261"/>
<text text-anchor="middle" x="198" y="-245.8" font-family="Times New Roman,serif" font-size="14.00">201045090</text>
<text text-anchor="middle" x="198" y="-230.8" font-family="Times New Roman,serif" font-size="14.00">josue perez</text>
<text text-anchor="middle" x="198" y="-215.8" font-family="Times New Roman,serif" font-size="14.00">ingenieria Mecanica</text>
</g>
<!-- 137583163784&#45;&gt;137583163709 -->
<g id="edge1" class="edge">
<title>137583163784&#45;&gt;137583163709</title>
<path fill="none" stroke="black" d="M247.38,-296.87C240.39,-288.18 232.48,-278.35 225.07,-269.14"/>
<polygon fill="black" stroke="black" points="227.71,-266.85 218.72,-261.25 222.26,-271.24 227.71,-266.85"/>
</g>
<!-- 137583163871 -->
<g id="node3" class="node">
<title>137583163871</title>
<polygon fill="none" stroke="black" points="397.5,-261 278.5,-261 278.5,-208 397.5,-208 397.5,-261"/>
<text text-anchor="middle" x="338" y="-245.8" font-family="Times New Roman,serif" font-size="14.00">201639410</text>
<text text-anchor="middle" x="338" y="-230.8" font-family="Times New Roman,serif" font-size="14.00">lionel messi</text>
<text text-anchor="middle" x="338" y="-215.8" font-family="Times New Roman,serif" font-size="14.00">ingenieria Quimica</text>
</g>
<!-- 137583163784&#45;&gt;137583163871 -->
<g id="edge2" class="edge">
<title>137583163784&#45;&gt;137583163871</title>
<path fill="none" stroke="black" d="M288.62,-296.87C295.61,-288.18 303.52,-278.35 310.93,-269.14"/>
<polygon fill="black" stroke="black" points="313.74,-271.24 317.28,-261.25 308.29,-266.85 313.74,-271.24"/>
</g>
<!-- 137583163694 -->
<g id="node4" class="node">
<title>137583163694</title>
<polygon fill="none" stroke="black" points="120,-164.5 0,-164.5 0,-111.5 120,-111.5 120,-164.5"/>
<text text-anchor="middle" x="60" y="-149.3" font-family="Times New Roman,serif" font-size="14.00">201027375</text>
<text text-anchor="middle" x="60" y="-134.3" font-family="Times New Roman,serif" font-size="14.00">auron play</text>
<text text-anchor="middle" x="60" y="-119.3" font-family="Times New Roman,serif" font-size="14.00">ingenieria Electrica</text>
</g>
<!-- 137583163709&#45;&gt;137583163694 -->
<g id="edge3" class="edge">
<title>137583163709&#45;&gt;137583163694</title>
<path fill="none" stroke="black" d="M160.66,-207.93C143.78,-196.37 123.68,-182.61 105.9,-170.43"/>
<polygon fill="black" stroke="black" points="107.6,-167.36 97.37,-164.59 103.65,-173.13 107.6,-167.36"/>
</g>
<!-- 137583163817 -->
<g id="node5" class="node">
<title>137583163817</title>
<polygon fill="none" stroke="black" points="259.5,-172 138.5,-172 138.5,-104 259.5,-104 259.5,-172"/>
<text text-anchor="middle" x="199" y="-156.8" font-family="Times New Roman,serif" font-size="14.00">201296311</text>
<text text-anchor="middle" x="199" y="-141.8" font-family="Times New Roman,serif" font-size="14.00">auron play</text>
<text text-anchor="middle" x="199" y="-126.8" font-family="Times New Roman,serif" font-size="14.00">ingenieria en cienci</text>
<text text-anchor="middle" x="199" y="-111.8" font-family="Times New Roman,serif" font-size="14.00">as y sistemas</text>
</g>
<!-- 137583163709&#45;&gt;137583163817 -->
<g id="edge4" class="edge">
<title>137583163709&#45;&gt;137583163817</title>
<path fill="none" stroke="black" d="M198.27,-207.68C198.36,-199.82 198.45,-190.96 198.54,-182.29"/>
<polygon fill="black" stroke="black" points="202.04,-182.29 198.65,-172.25 195.04,-182.21 202.04,-182.29"/>
</g>
<!-- 137583163658 -->
<g id="node6" class="node">
<title>137583163658</title>
<polygon fill="none" stroke="black" points="397.5,-164.5 278.5,-164.5 278.5,-111.5 397.5,-111.5 397.5,-164.5"/>
<text text-anchor="middle" x="338" y="-149.3" font-family="Times New Roman,serif" font-size="14.00">201533907</text>
<text text-anchor="middle" x="338" y="-134.3" font-family="Times New Roman,serif" font-size="14.00">lionel messi</text>
<text text-anchor="middle" x="338" y="-119.3" font-family="Times New Roman,serif" font-size="14.00">ingenieria Quimica</text>
</g>
<!-- 137583163871&#45;&gt;137583163658 -->
<g id="edge5" class="edge">
<title>137583163871&#45;&gt;137583163658</title>
<path fill="none" stroke="black" d="M338,-207.68C338,-197.57 338,-185.81 338,-174.9"/>
<polygon fill="black" stroke="black" points="341.5,-174.79 338,-164.79 334.5,-174.79 341.5,-174.79"/>
</g>
<!-- 137583163844 -->
<g id="node7" class="node">
<title>137583163844</title>
<polygon fill="none" stroke="black" points="552,-164.5 416,-164.5 416,-111.5 552,-111.5 552,-164.5"/>
<text text-anchor="middle" x="484" y="-149.3" font-family="Times New Roman,serif" font-size="14.00">201835603</text>
<text text-anchor="middle" x="484" y="-134.3" font-family="Times New Roman,serif" font-size="14.00">alma maria hernandez</text>
<text text-anchor="middle" x="484" y="-119.3" font-family="Times New Roman,serif" font-size="14.00">ingenieria Quimica</text>
</g>
<!-- 137583163871&#45;&gt;137583163844 -->
<g id="edge6" class="edge">
<title>137583163871&#45;&gt;137583163844</title>
<path fill="none" stroke="black" d="M377.51,-207.93C395.53,-196.27 417.02,-182.36 435.96,-170.1"/>
<polygon fill="black" stroke="black" points="437.97,-172.97 444.46,-164.59 434.16,-167.09 437.97,-172.97"/>
</g>
<!-- 137583163727 -->
<g id="node8" class="node">
<title>137583163727</title>
<polygon fill="none" stroke="black" points="252,-60.5 132,-60.5 132,-7.5 252,-7.5 252,-60.5"/>
<text text-anchor="middle" x="192" y="-45.3" font-family="Times New Roman,serif" font-size="14.00">201491494</text>
<text text-anchor="middle" x="192" y="-30.3" font-family="Times New Roman,serif" font-size="14.00">josue perez</text>
<text text-anchor="middle" x="192" y="-15.3" font-family="Times New Roman,serif" font-size="14.00">ingenieria Electrica</text>
</g>
<!-- 137583163658&#45;&gt;137583163727 -->
<g id="edge7" class="edge">
<title>137583163658&#45;&gt;137583163727</title>
<path fill="none" stroke="black" d="M301.16,-111.26C281.63,-97.62 257.49,-80.75 236.87,-66.35"/>
<polygon fill="black" stroke="black" points="238.78,-63.41 228.58,-60.55 234.77,-69.15 238.78,-63.41"/>
</g>
<!-- 137583177220 -->
<g id="node9" class="node">
<title>137583177220</title>
<polygon fill="none" stroke="black" points="406,-68 270,-68 270,0 406,0 406,-68"/>
<text text-anchor="middle" x="338" y="-52.8" font-family="Times New Roman,serif" font-size="14.00">201590802</text>
<text text-anchor="middle" x="338" y="-37.8" font-family="Times New Roman,serif" font-size="14.00">alma maria hernandez</text>
<text text-anchor="middle" x="338" y="-22.8" font-family="Times New Roman,serif" font-size="14.00">ingenieria en cienci</text>
<text text-anchor="middle" x="338" y="-7.8" font-family="Times New Roman,serif" font-size="14.00">as y sistemas</text>
</g>
<!-- 137583163658&#45;&gt;137583177220 -->
<g id="edge8" class="edge">
<title>137583163658&#45;&gt;137583177220</title>
<path fill="none" stroke="black" d="M338,-111.26C338,-101.23 338,-89.45 338,-78.2"/>
<polygon fill="black" stroke="black" points="341.5,-78.07 338,-68.07 334.5,-78.07 341.5,-78.07"/>
</g>
<!-- 137583177247 -->
<g id="node10" class="node">
<title>137583177247</title>
<polygon fill="none" stroke="black" points="544,-60.5 424,-60.5 424,-7.5 544,-7.5 544,-60.5"/>
<text text-anchor="middle" x="484" y="-45.3" font-family="Times New Roman,serif" font-size="14.00">201798433</text>
<text text-anchor="middle" x="484" y="-30.3" font-family="Times New Roman,serif" font-size="14.00">luis garcia</text>
<text text-anchor="middle" x="484" y="-15.3" font-family="Times New Roman,serif" font-size="14.00">ingenieria Electrica</text>
</g>
<!-- 137583163844&#45;&gt;137583177247 -->
<g id="edge9" class="edge">
<title>137583163844&#45;&gt;137583177247</title>
<path fill="none" stroke="black" d="M484,-111.26C484,-99.06 484,-84.28 484,-70.99"/>
<polygon fill="black" stroke="black" points="487.5,-70.73 484,-60.73 480.5,-70.73 487.5,-70.73"/>
</g>
</g>
</svg>
